<svg xmlns="http://www.w3.org/2000/svg" viewBox="0 0 180 100" width="180" height="100">
  <ellipse cx="50" cy="55" rx="20" ry="12" fill="#c0392b"/>
  <circle cx="50" cy="35" r="10" fill="#c0392b"/>
  <ellipse cx="45" cy="28" rx="8" ry="3" fill="#c0392b"/>
  <circle cx="32" cy="20" r="3" fill="#c0392b"/>
  <circle cx="38" cy="18" r="3" fill="#c0392b"/>
  <line x1="40" y1="45" x2="25" y2="80" stroke="#c0392b" stroke-width="3"/>
  <line x1="60" y1="45" x2="75" y2="80" stroke="#c0392b" stroke-width="3"/>
  <circle cx="46" cy="33" r="2" fill="#fff"/>
  <circle cx="54" cy="33" r="2" fill="#fff"/>
  <circle cx="130" cy="65" r="22" fill="#27ae60"/>
  <circle cx="130" cy="65" r="18" fill="#2ecc71"/>
  <circle cx="120" cy="70" r="4" fill="#1a5276"/>
  <circle cx="140" cy="70" r="4" fill="#1a5276"/>
  <circle cx="130" cy="62" r="3" fill="#1a5276"/>
  <line x1="108" y1="72" x2="96" y2="85" stroke="#27ae60" stroke-width="4"/>
  <line x1="152" y1="72" x2="164" y2="85" stroke="#27ae60" stroke-width="4"/>
  <rect x="122" y="82" width="16" height="3" rx="1" fill="#27ae60"/>
</svg>