<svg xmlns="http://www.w3.org/2000/svg" viewBox="0 0 100 140" width="100" height="140">
  <rect x="15" y="120" width="70" height="15" rx="2" fill="#666"/>
  <rect x="20" y="110" width="60" height="12" rx="2" fill="#888"/>
  <rect x="25" y="85" width="50" height="28" rx="2" fill="#999"/>
  <rect x="28" y="90" width="15" height="18" rx="2" fill="#bbb"/>
  <rect x="57" y="90" width="15" height="18" rx="2" fill="#bbb"/>
  <polygon points="15,85 50,55 85,85" fill="#777"/>
  <polygon points="25,60 50,40 75,60" fill="#888"/>
  <polygon points="35,42 50,28 65,42" fill="#999"/>
  <rect x="45" y="15" width="10" height="15" rx="2" fill="#aaa"/>
  <polygon points="40,15 50,5 60,15" fill="#bbb"/>
  <rect x="15" y="125" width="70" height="8" rx="2" fill="#555"/>
  <rect x="0" y="133" width="100" height="7" rx="2" fill="#444"/>
</svg>